<svg t="1690725714085" class="icon" viewBox="0 0 1024 1024" version="1.1" xmlns="http://www.w3.org/2000/svg" p-id="1398" width="200" height="200"><path d="M512 292.571429a243.809524 243.809524 0 1 1 0 487.619047 243.809524 243.809524 0 0 1 0-487.619047z m0 48.761904a195.047619 195.047619 0 1 0 0 390.095238 195.047619 195.047619 0 0 0 0-390.095238z" p-id="1399"></path><path d="M658.285714 438.857143m-195.047619 0a195.047619 195.047619 0 1 0 390.095238 0 195.047619 195.047619 0 1 0-390.095238 0Z" fill="#333333" p-id="1400"></path><path d="M512.341333 97.52381a24.380952 24.380952 0 0 1 24.380953 24.380952v97.523809a24.380952 24.380952 0 0 1-48.761905 0v-97.523809a24.380952 24.380952 0 0 1 24.380952-24.380952zM512.341333 828.952381a24.380952 24.380952 0 0 1 24.380953 24.380952v97.52381a24.380952 24.380952 0 1 1-48.761905 0v-97.52381a24.380952 24.380952 0 0 1 24.380952-24.380952z" fill="#333333" p-id="1401"></path><path d="M892.391619 316.952381a24.380952 24.380952 0 0 1-8.923429 33.304381l-84.455619 48.761905a24.380952 24.380952 0 0 1-24.380952-42.22781l84.455619-48.761905a24.380952 24.380952 0 0 1 33.304381 8.923429zM258.925714 682.666667a24.380952 24.380952 0 0 1-8.874666 33.304381l-84.455619 48.761904a24.380952 24.380952 0 1 1-24.380953-42.227809l84.455619-48.761905A24.380952 24.380952 0 0 1 258.925714 682.666667z" fill="#333333" p-id="1402"></path><path d="M892.391619 755.809524a24.380952 24.380952 0 0 1-33.304381 8.923428l-84.455619-48.761904a24.380952 24.380952 0 0 1 24.380952-42.22781l84.455619 48.761905a24.380952 24.380952 0 0 1 8.923429 33.304381zM258.925714 390.095238a24.380952 24.380952 0 0 1-33.255619 8.923429l-84.455619-48.761905a24.380952 24.380952 0 1 1 24.380953-42.22781l84.455619 48.761905A24.380952 24.380952 0 0 1 258.925714 390.095238z" fill="#333333" p-id="1403"></path></svg>